<svg width="32" height="32" viewBox="0 0 32 32" xmlns="http://www.w3.org/2000/svg">
  <rect width="32" height="32" rx="8" fill="#2563eb"/>
  <path d="M9 14h11.5v6a4 4 0 0 1-4 4h-3.5a4 4 0 0 1-4-4v-6z" fill="#ffffff"/>
  <path d="M20.5 15.5h1.2a2.3 2.3 0 0 1 0 4.6h-1.2v-4.6z" fill="none" stroke="#ffffff" stroke-width="1.6"/>
  <path d="M12 11.5c0-1 .8-1 .8-2s-.8-1-.8-2" fill="none" stroke="#ffffff" stroke-width="1.3" stroke-linecap="round"/>
  <path d="M16 11.5c0-1 .8-1 .8-2s-.8-1-.8-2" fill="none" stroke="#ffffff" stroke-width="1.3" stroke-linecap="round"/>
</svg>
